Coordinates
version=1
nRows=16
nColumns=40
inDegrees=yes

Units are S.I. units (second, meters, Newtons, ...)
Angles are in degrees.

endheader
time	pelvis_tilt	pelvis_list	pelvis_rotation	pelvis_tx	pelvis_ty	pelvis_tz	hip_flexion_r	hip_adduction_r	hip_rotation_r	knee_angle_r	knee_angle_r_beta	ankle_angle_r	subtalar_angle_r	mtp_angle_r	hip_flexion_l	hip_adduction_l	hip_rotation_l	knee_angle_l	knee_angle_l_beta	ankle_angle_l	subtalar_angle_l	mtp_angle_l	lumbar_extension	lumbar_bending	lumbar_rotation	arm_flex_r	arm_add_r	arm_rot_r	elbow_flex_r	pro_sup_r	wrist_flex_r	wrist_dev_r	arm_flex_l	arm_add_l	arm_rot_l	elbow_flex_l	pro_sup_l	wrist_flex_l	wrist_dev_l
      2.96000000	     -6.19830986	      0.21547704	      0.59757759	      0.88941083	      1.01021842	     -0.52021026	     31.98919635	     -1.61128205	     -4.00797967	      6.07663636	      6.07663636	     -5.04572794	      0.00000000	      0.00000000	     -8.54455974	      2.33773942	     -0.55600721	     13.80981838	     13.80981838	      7.89275738	      0.00000000	      0.00000000	     -3.94092489	      3.77430991	     -2.86585973	    -16.51306502	     -9.54472784	    -21.66179535	     25.00096332	     19.60107439	      0.00000000	      0.00000000	     -1.80951597	     -9.91393640	     -0.35353570	     63.54371858	     16.91138491	      0.00000000	      0.00000000
      2.97000000	     -6.09184727	     -0.30198807	      0.56678903	      0.89096202	      1.00831723	     -0.51901776	     32.57448496	     -1.13704199	     -4.92613646	      8.92964459	      8.92964459	     -5.53486506	      0.00000000	      0.00000000	     -8.69699803	      1.60123536	     -1.08282969	     15.71098457	     15.71098457	      7.65649826	      0.00000000	      0.00000000	     -3.89678064	      4.41696694	     -2.74295848	    -16.65285416	     -9.67269773	    -21.87234166	     24.87356112	     19.71336858	      0.00000000	      0.00000000	     -1.97146741	     -9.68494312	     -0.22248632	     63.48932290	     16.96962910	      0.00000000	      0.00000000
      2.98000000	     -6.12561194	     -0.78630850	      0.54192885	      0.89275904	      1.00640887	     -0.51780068	     33.37247257	     -0.77194173	     -5.93083637	     12.07058667	     12.07058667	     -6.22685456	      0.00000000	      0.00000000	     -8.59860234	      0.86419480	     -1.67918894	     17.79844110	     17.79844110	      7.25875817	      0.00000000	      0.00000000	     -3.63379086	      5.01894014	     -2.66331006	    -16.74881865	     -9.81269187	    -22.04932457	     24.71727641	     19.84176768	      0.00000000	      0.00000000	     -2.26815948	     -9.46162467	     -0.05328432	     63.26737380	     17.01412224	      0.00000000	      0.00000000
      2.99000000	     -5.67317851	     -1.44727727	      0.41203087	      0.89478497	      1.00563192	     -0.51635179	     33.32066873	     -0.14699103	     -6.75010041	     14.54857426	     14.54857426	     -7.02574202	      0.00000000	      0.00000000	     -9.09555535	     -0.08349859	     -2.41156269	     19.69405944	     19.69405944	      6.45237710	      0.00000000	      0.00000000	     -3.94121602	      5.82591700	     -2.42986029	    -16.70532740	    -10.01220540	    -22.11791744	     24.49008526	     19.89799717	      0.00000000	      0.00000000	     -2.51139103	     -9.17926564	      0.13464471	     62.88563958	     17.04237698	      0.00000000	      0.00000000
      3.00000000	     -5.98120957	     -1.81657023	      0.51898830	      0.89605617	      1.00396218	     -0.51507471	     34.40543086	     -0.02674389	     -7.63501264	     17.60209428	     17.60209428	     -7.44266524	      0.00000000	      0.00000000	     -8.26171086	     -0.80552984	     -2.80627359	     22.43317806	     22.43317806	      5.50386830	      0.00000000	      0.00000000	     -3.39174921	      6.28266772	     -2.50932573	    -16.64256345	    -10.08697457	    -22.33169246	     24.34756209	     20.06466163	      0.00000000	      0.00000000	     -2.88355181	     -8.99246175	      0.31297280	     62.43251420	     17.13753450	      0.00000000	      0.00000000
      3.01000000	     -5.76723726	     -2.27914872	      0.54527464	      0.89750585	      1.00361390	     -0.51343013	     34.53369325	      0.31538534	     -8.20889512	     19.91076750	     19.91076750	     -7.94137219	      0.00000000	      0.00000000	     -8.04040961	     -1.64504145	     -3.37689758	     24.94953561	     24.94953561	      3.91940112	      0.00000000	      0.00000000	     -3.47271701	      6.81849965	     -2.47383147	    -16.35990717	    -10.17099496	    -22.35829845	     24.02753599	     20.20204111	      0.00000000	      0.00000000	     -3.16857620	     -8.79419997	      0.42711633	     61.77893745	     17.24787242	      0.00000000	      0.00000000
      3.02000000	     -5.35077290	     -2.67298800	      0.64858076	      0.89906535	      1.00394456	     -0.51175830	     34.25559921	      0.58184609	     -8.56003335	     21.95918702	     21.95918702	     -8.44406501	      0.00000000	      0.00000000	     -7.89836977	     -2.45831333	     -3.92686212	     27.59802268	     27.59802268	      1.88018770	      0.00000000	      0.00000000	     -3.78079734	      7.25612149	     -2.53620679	    -15.94156002	    -10.22666212	    -22.31821179	     23.64634190	     20.28951502	      0.00000000	      0.00000000	     -3.44216434	     -8.61107163	      0.50863309	     60.90037304	     17.33693172	      0.00000000	      0.00000000
      3.03000000	     -5.02140804	     -3.01984708	      0.88194631	      0.90105569	      1.00436395	     -0.51016328	     33.86647073	      0.73086209	     -8.99943880	     23.74593269	     23.74593269	     -8.82826957	      0.00000000	      0.00000000	     -7.47824097	     -3.30946384	     -4.39718356	     30.51599246	     30.51599246	     -0.38566124	      0.00000000	      0.00000000	     -3.91368052	      7.61876374	     -2.76186305	    -15.56756047	    -10.28748178	    -22.22942693	     23.40008993	     20.36214529	      0.00000000	      0.00000000	     -3.87010161	     -8.46734341	      0.65351670	     59.93104516	     17.43404826	      0.00000000	      0.00000000
      3.04000000	     -4.73006058	     -3.34771151	      1.14016912	      0.90329027	      1.00496615	     -0.50862643	     33.32947024	      0.86069519	     -9.41656959	     25.27387702	     25.27387702	     -8.79209472	      0.00000000	      0.00000000	     -6.82932859	     -4.23666082	     -4.96445447	     33.66833432	     33.66833432	     -2.90625174	      0.00000000	      0.00000000	     -3.95602586	      7.95659269	     -2.97676413	    -15.24508655	    -10.33406728	    -22.11143940	     23.23705650	     20.42611634	      0.00000000	      0.00000000	     -4.33424187	     -8.31112581	      0.83528896	     58.85544436	     17.51382474	      0.00000000	      0.00000000
      3.05000000	     -4.26533526	     -3.52721311	      1.30842256	      0.90565391	      1.00627627	     -0.50700651	     32.40411067	      1.01107006	     -9.30604126	     26.50180619	     26.50180619	     -8.14227755	      0.00000000	      0.00000000	     -6.35853312	     -5.04303486	     -5.58184037	     36.61699050	     36.61699050	     -6.01482715	      0.00000000	      0.00000000	     -4.21442202	      8.11280538	     -3.11154338	    -14.84899010	    -10.32701188	    -22.04695285	     23.19559066	     20.45336489	      0.00000000	      0.00000000	     -4.81926590	     -8.17498471	      0.98895386	     57.80373490	     17.54578934	      0.00000000	      0.00000000
      3.06000000	     -5.13234021	     -4.37878793	      1.85174791	      0.90685282	      1.00536974	     -0.50551545	     32.98339666	      1.45248990	    -10.34676449	     27.85102236	     27.85102236	     -7.19678490	      0.00000000	      0.00000000	     -3.38167211	     -6.83183796	     -5.81390063	     41.45505569	     41.45505569	     -7.99107977	      0.00000000	      0.00000000	     -2.89296761	      8.98463976	     -3.53988915	    -14.73300999	    -10.36581622	    -22.03459860	     23.32172608	     20.56442323	      0.00000000	      0.00000000	     -5.33356132	     -8.02838504	      1.46441835	     56.29395202	     17.97876511	      0.00000000	      0.00000000
      3.07000000	     -4.75914672	     -4.82262295	      2.16730899	      0.90819191	      1.00686178	     -0.50377464	     32.08552316	      1.81203275	    -10.71155831	     29.00589927	     29.00589927	     -5.87989364	      0.00000000	      0.00000000	     -2.11437903	     -8.18900320	     -6.34902988	     45.24022384	     45.24022384	    -10.86372928	      0.00000000	      0.00000000	     -3.13318643	      9.39554102	     -3.56446752	    -14.33555297	    -10.31997544	    -21.97496601	     23.52454262	     20.59781203	      0.00000000	      0.00000000	     -5.56457056	     -7.97794661	      2.02923516	     54.74771223	     18.21231998	      0.00000000	      0.00000000
      3.08000000	     -4.93706340	     -5.54296566	      2.54016768	      0.90845955	      1.00774645	     -0.50203617	     31.55085396	      2.46268706	    -11.16097339	     29.49699716	     29.49699716	     -4.92635258	      0.00000000	      0.00000000	      0.25396605	     -9.81780363	     -6.39471470	     49.52431420	     49.52431420	    -13.86658328	      0.00000000	      0.00000000	     -2.79594365	     10.11238332	     -3.57092897	    -13.96944489	    -10.26479019	    -22.13406798	     23.92395701	     20.61909918	      0.00000000	      0.00000000	     -5.71677806	     -7.90577677	      2.74707856	     53.06956500	     18.63359099	      0.00000000	      0.00000000
      3.09000000	     -4.77688919	     -6.12208141	      2.83055621	      0.90871546	      1.00932678	     -0.50043955	     30.59682170	      3.02418441	    -11.61460740	     29.89773853	     29.89773853	     -4.03644901	      0.00000000	      0.00000000	      2.12352091	    -11.19610667	     -6.36998783	     53.17360934	     53.17360934	    -17.09773509	      0.00000000	      0.00000000	     -2.89133439	     10.69250448	     -3.37686330	    -13.55099931	    -10.25603881	    -22.13974405	     24.39751464	     20.64497844	      0.00000000	      0.00000000	     -5.78252924	     -7.79837868	      3.57024115	     51.21915120	     18.84932992	      0.00000000	      0.00000000
      3.10000000	     -4.81315725	     -6.81741758	      3.13485614	      0.90882793	      1.01078635	     -0.49901137	     29.69405416	      3.70952639	    -12.12646389	     29.91813838	     29.91813838	     -3.31556722	      0.00000000	      0.00000000	      4.22384266	    -12.50941021	     -5.97140163	     56.47091931	     56.47091931	    -19.63492505	      0.00000000	      0.00000000	     -2.72194512	     11.39972223	     -3.10319429	    -13.23203679	    -10.29032750	    -22.23529733	     24.97990395	     20.66567353	      0.00000000	      0.00000000	     -5.80636146	     -7.63036515	      4.38743827	     49.23011332	     18.97314292	      0.00000000	      0.00000000
      3.11000000	     -4.96660443	     -7.45565583	      3.38220860	      0.90872441	      1.01224759	     -0.49777485	     28.86909254	      4.38906925	    -12.50003492	     29.80842588	     29.80842588	     -2.56991899	      0.00000000	      0.00000000	      6.41412630	    -13.54724806	     -5.34525515	     59.47850819	     59.47850819	    -20.55175883	      0.00000000	      0.00000000	     -2.44678159	     12.05180523	     -2.77838151	    -12.87796312	    -10.37020239	    -22.40396305	     25.56917363	     20.73580861	      0.00000000	      0.00000000	     -5.85673369	     -7.41678724	      5.05298733	     47.27134014	     19.05566536	      0.00000000	      0.00000000
